Delgo 2008 Dutch subbed 1080P AVCHD

Verenigde Staten
Animatie / Fantasy
94 minuten

geregisseerd door Marc F. Adler en Jason Maurer
met de stemmen van Freddie Prinze Jr., Val Kilmer en Jennifer Love Hewitt

Delgo is een jonge inwoner van een planeet, die in het teken staat van oorlog. samen met zijn vrienden moet hij de planeet redden, voordat deze wordt vernietigd in al zijn conflicten.


 
http://www.moviemeter.nl/film/14906

English


Storyline
In an exotic divided land, Delgo, an adventurous dreamer but naive teenager, must rally his group of troubled youth and some unlikely friends to protect their world from conflict between the terrestrial Lockni people, who harness the mysteries of the land. And the winged Nohrin people, who rule the skies. They live - segregated - in an uneasy peace until Delgo was framed for a crime he did not commit. After enlisting the help of a unlikely friend to escape a Nohri prison, Delgo discovers Imhoff is in danger so he must unite the two races against a common foe.

 
http://www.imdb.com/title/tt0361500/


Formaat......... : AVCHD 1080p
Bron............ : Bluray
Audio ...........: English
Subs.............: Dutch

Media INFo

General
ID                               : 1
Complete name                    : Delgo.2008.Dutch.subbed.Anime.1080P.AVCHD.-RVL\BDMV\STREAM\00000.m2ts
Format                           : BDAV
Format/Info                      : Blu-ray Video
File size                        : 4.37 GiB
Duration                         : 1h 29mn
Overall bit rate                 : 6 992 Kbps
Maximum Overall bit rate         : 35.5 Mbps

Video
ID                               : 4113 (0x1011)
Menu ID                          : 1 (0x1)
Format                           : AVC
Format/Info                      : Advanced Video Codec
Format profile                   : High@L4.1
Format settings, CABAC           : Yes
Format settings, ReFrames        : 3 frames
Codec ID                         : 27
Duration                         : 1h 29mn
Bit rate mode                    : Variable
Bit rate                         : 5 932 Kbps
Maximum bit rate                 : 18.0 Mbps
Width                            : 1 920 pixels
Height                           : 1 080 pixels
Display aspect ratio             : 16:9
Frame rate                       : 23.976 fps
Color space                      : YUV
Chroma subsampling               : 4:2:0
Bit depth                        : 8 bits
Scan type                        : Progressive
Bits/(Pixel*Frame)               : 0.119
Stream size                      : 3.79 GiB (87%)
Writing library                  : x264 core 79 r1352M d487de4
Encoding settings                : cabac=1 / ref=3 / deblock=1:0:0 / analyse=0x3:0x113 / me=umh / subme=7 / psy=1 / psy_rd=1.0:0.3 / mixed_ref=1 / me_range=16 / chroma_me=1 / trellis=1 / 8x8dct=1 / cqm=0 / deadzone=21,11 / chroma_qp_offset=-4 / threads=6 / nr=0 / decimate=1 / mbaff=0 / constrained_intra=0 / bframes=3 / b_pyramid=0 / b_adapt=1 / b_bias=0 / direct=3 / wpredb=1 / wpredp=0 / keyint=24 / keyint_min=2 / scenecut=40 / rc_lookahead=24 / rc=2pass / mbtree=1 / bitrate=5932 / ratetol=1.0 / qcomp=0.60 / qpmin=10 / qpmax=51 / qpstep=4 / cplxblur=20.0 / qblur=0.5 / vbv_maxrate=18000 / vbv_bufsize=18000 / ip_ratio=1.10 / aq=1:1.00 / pulldown=0 / nal_hrd=1

Audio
ID                               : 4352 (0x1100)
Menu ID                          : 1 (0x1)
Format                           : AC-3
Format/Info                      : Audio Coding 3
Mode extension                   : CM (complete main)
Codec ID                         : 129
Duration                         : 1h 29mn
Bit rate mode                    : Constant
Bit rate                         : 640 Kbps
Channel(s)                       : 6 channels
Channel positions                : Front: L C R, Side: L R, LFE
Sampling rate                    : 48.0 KHz
Bit depth                        : 16 bits
Stream size                      : 409 MiB (9%)
Language                         : English

Text
ID                               : 4608 (0x1200)
Menu ID                          : 1 (0x1)
Format                           : PGS
Codec ID                         : 144
Language                         : Dutch

TBS

